<?xml version="1.0" encoding="utf-8"?>
<!-- Generator: Adobe Illustrator 17.1.0, SVG Export Plug-In . SVG Version: 6.00 Build 0)  -->
<!DOCTYPE svg PUBLIC "-//W3C//DTD SVG 1.1//EN" "http://www.w3.org/Graphics/SVG/1.1/DTD/svg11.dtd">
<svg version="1.1" id="Layer_1" xmlns="http://www.w3.org/2000/svg" xmlns:xlink="http://www.w3.org/1999/xlink" x="0px" y="0px"
	 viewBox="0 0 273.2194824 315.4866943" enable-background="new 0 0 273.2194824 315.4866943" xml:space="preserve">
<polygon fill="#F8C432" points="136.6097412,157.7433472 0,236.6149902 136.6097412,315.4866943 273.2194824,236.6149902 "/>
<polygon opacity="0.75" fill="#DFD7AB" points="136.6097412,0 273.2194824,78.8716431 273.2194824,236.6149902 
	136.6097412,157.7433472 "/>
<polygon opacity="0.75" fill="#E6D291" points="273.2194824,78.8717041 136.6097412,157.7433472 136.6097412,315.4866943 
	273.2194824,236.6150513 "/>
<polygon opacity="0.8" fill="#ECCD76" points="136.6097412,0 -0.0000076,78.8716431 -0.0000076,236.6149902 
	136.6097412,157.7433472 "/>
<polygon opacity="0.75" fill="#D7DBC6" points="136.6097412,0.0000285 0,78.8716736 136.6097412,157.7433777 
	273.2194824,78.8716736 "/>
<polygon opacity="0.75" fill="#F2C957" points="-0.0000076,78.8716965 136.6097412,157.7433472 136.609726,315.4866943 
	-0.0000076,236.6150513 "/>
<g opacity="0.5">
	<path fill="#FFFFFF" d="M136.1738739,226.8926086c-9.2539062,0-18.5581055-2.0426025-27.9177246-6.1322632
		c-9.3601074-4.0852661-18.0236816-9.3601685-25.9819336-15.8153076l-27.434082,32.5985107
		c11.4020996,10.116394,24.0454102,17.7008667,37.923584,22.7540894c13.8781738,5.0531616,27.918457,7.5844727,42.1193848,7.5844727
		c0.6113281,0,1.2028809-0.0233154,1.8076172-0.0310059v-40.9639893
		C136.5171356,226.888031,136.3491669,226.8926086,136.1738739,226.8926086z"/>
	<path fill="#FFFFFF" d="M136.6907196,157.7906799l-73.3862305-42.3695679
		c0.2897949,6.5055542,1.4987793,12.411499,3.6386719,17.7116089c2.4716797,6.1322632,5.7541504,11.5133667,9.8444824,16.1375122
		c4.0847168,4.6292114,8.8752441,8.6642456,14.3625488,12.1031494c5.4865723,3.4445801,11.1350098,6.2434692,16.9445801,8.3916016
		l4.5087891,1.9324341l24.0871582-13.9066772V157.7906799z"/>
	<path fill="#FFFFFF" d="M136.6907196,157.790741l-24.0871582,13.9066772l22.6025391,9.6870728
		c0.5095215,0.1911011,0.9868164,0.3734131,1.4846191,0.5613403V157.790741L136.6907196,157.790741z"/>
	<path fill="#FFFFFF" d="M136.6907196,157.790741L136.6907196,157.790741v24.1550903
		c4.548584,1.7166748,8.6411133,3.3093872,12.2321777,4.7637939c3.9790039,1.6136475,7.3676758,3.3384399,10.1665039,5.1643677
		c2.7939453,1.8303223,4.9477539,3.9282227,6.4550781,6.2937012c1.5031738,2.369873,2.2595215,5.1636963,2.2595215,8.3916016
		c0,6.2427979-2.5314941,11.1904907-7.5844727,14.8461304c-4.9775391,3.6027832-12.8232422,5.4243164-23.5288086,5.4816895
		v40.9639893c12.3771973-0.1577148,23.404541-1.9094849,33.0495605-5.2941895
		c10.1115723-3.5507202,18.609375-8.2810669,25.4978027-14.2009888
		c6.8835449-5.9155884,12.1533203-12.7997437,15.8146973-20.6567993c3.4909668-7.4967041,5.2980957-15.4407959,5.4560547-23.8253784
		l-79.8178711-46.0830688L136.6907196,157.790741z"/>
</g>
<g>
	<polygon fill="#FFFFFF" points="136.752243,157.7475586 136.7524872,157.7474976 136.752243,157.7474976 	"/>
	<path fill="#FFFFFF" d="M140.4311981,90.6472244c9.0373535,0,17.1062012,1.4522095,24.2070312,4.3572388
		c7.1000977,2.9050293,14.3066406,7.0499878,21.6240234,12.4260254l24.2070312-30.0163574
		c-9.6831055-9.0366821-20.5507812-15.9208412-32.5986328-20.6561928
		c-12.0527344-4.7302856-24.5290527-7.1001587-37.4394531-7.1001587c-1.239502,0-2.4624023,0.0276489-3.6789551,0.0657349v41.024662
		C137.9419403,90.6854324,139.1626434,90.6472244,140.4311981,90.6472244z"/>
	<path fill="#FFFFFF" d="M136.7524872,157.7474976l26.9421387-15.5550537l-17.776123-7.6506958
		c-3.2519531-1.175293-6.2932129-2.3262939-9.1662598-3.4577026v26.6634521H136.7524872z"/>
	<path fill="#FFFFFF" d="M136.752243,131.0840454c-6.064209-2.3882446-11.3059006-4.6805344-15.6857834-6.8703537
		c-6.4550781-3.2272949-9.6828613-8.0687866-9.6828613-14.5239258c0-6.0210571,2.5268555-10.7011719,7.5849609-14.0396118
		c4.3598633-2.8764038,10.2946701-4.5070801,17.7836838-4.9019775v-41.024662
		c-9.9792404,0.3126221-19.1909103,1.8985596-27.6281662,4.7751465
		c-9.4707031,3.2278442-17.5895996,7.6956177-24.3676758,13.3945351
		c-6.777832,5.7038574-12.0527344,12.3757324-15.8144531,20.010437c-3.7675781,7.6403809-5.6486816,15.7650757-5.6486816,24.3683472
		c0,1.0511475,0.0270996,2.0845337,0.0727539,3.105957l73.3862228,42.3695602V131.0840454z"/>
	<path fill="#FFFFFF" d="M204.4983368,166.8173828c-8.0693359-9.0372925-19.0983887-16.1381226-33.0827637-21.3018799
		l-7.7209473-3.3230591l-26.9421387,15.5550537l79.8178711,46.0830688c0.0075684-0.3967896,0.03125-0.7892456,0.03125-1.1880493
		C216.6016083,187.7964478,212.5669403,175.8540649,204.4983368,166.8173828z"/>
</g>
</svg>
